<svg width="31" height="31" viewBox="0 0 31 31" fill="none" xmlns="http://www.w3.org/2000/svg">
<rect width="28" height="28" transform="translate(2.91217) rotate(5.96991)" fill="black"/>
<path d="M21.6047 27.7615L22.034 27.8064C22.3949 27.8324 22.7509 27.682 22.9913 27.4021L26.022 23.8833C26.2228 23.6462 26.3251 23.3402 26.2999 23.0208C26.2874 22.8651 26.2438 22.7135 26.1716 22.575C26.0995 22.4365 26.0003 22.3139 25.8798 22.2144L20.5793 17.8243C20.1364 17.4613 19.4909 17.4642 19.0643 17.8418L16.6365 19.9692C15.8093 19.3548 14.4339 18.2609 13.3949 16.9792C12.3559 15.6975 11.5702 14.1256 11.139 13.2007L13.7226 11.2656C14.1804 10.9264 14.3284 10.2967 14.0532 9.78697L10.8547 3.69292C10.7073 3.41945 10.4599 3.20589 10.1642 3.11632C9.85702 3.02554 9.53766 3.0508 9.26297 3.20976L5.19443 5.43534C4.8709 5.61265 4.65006 5.92974 4.60084 6.28823C4.47988 7.10843 3.56095 14.4376 8.7052 20.7703C13.3391 26.4866 19.7726 27.5582 21.6059 27.7499L21.6047 27.7615Z" fill="#F4FF00"/>
</svg>
