<svg width="29" height="29" viewBox="0 0 29 29" fill="none" xmlns="http://www.w3.org/2000/svg">
<path d="M24.7715 12.6875V23.5625C24.7715 24.1256 24.7715 24.4071 24.6797 24.6295C24.5568 24.9249 24.3217 25.1596 24.0259 25.282C23.8036 25.375 23.5221 25.375 22.959 25.375C22.3959 25.375 22.1144 25.375 21.892 25.2832C21.5965 25.1603 21.3619 24.9252 21.2395 24.6295C21.1465 24.4071 21.1465 24.1256 21.1465 23.5625V12.6875C21.1465 12.1244 21.1465 11.8429 21.2383 11.6205C21.3612 11.3251 21.5963 11.0904 21.892 10.968C22.1144 10.875 22.3959 10.875 22.959 10.875C23.5221 10.875 23.8036 10.875 24.0259 10.9668C24.3214 11.0897 24.5561 11.3248 24.6784 11.6205C24.7715 11.8429 24.7715 12.1244 24.7715 12.6875Z" stroke="#F4FF00" stroke-width="1.5" stroke-linejoin="round"/>
<path d="M19.9375 3.625H23.5625V7.25" stroke="#F4FF00" stroke-width="1.5" stroke-linecap="round" stroke-linejoin="round"/>
<path d="M22.9583 4.22913C22.9583 4.22913 18.125 10.2708 5.4375 14.5" stroke="#F4FF00" stroke-width="1.5" stroke-linecap="round" stroke-linejoin="round"/>
<path d="M16.3128 16.9166V23.5625C16.3128 24.1255 16.3128 24.4071 16.221 24.6294C16.0981 24.9249 15.863 25.1596 15.5673 25.2819C15.345 25.375 15.0634 25.375 14.5003 25.375C13.9372 25.375 13.6557 25.375 13.4334 25.2831C13.1379 25.1602 12.9032 24.9251 12.7809 24.6294C12.6878 24.4071 12.6878 24.1255 12.6878 23.5625V16.9166C12.6878 16.3535 12.6878 16.072 12.7797 15.8497C12.9026 15.5542 13.1377 15.3195 13.4334 15.1972C13.6557 15.1041 13.9372 15.1041 14.5003 15.1041C15.0634 15.1041 15.345 15.1041 15.5673 15.196C15.8628 15.3189 16.0974 15.554 16.2198 15.8497C16.3128 16.072 16.3128 16.3535 16.3128 16.9166ZM7.85449 19.9375V23.5625C7.85449 24.1255 7.85449 24.4071 7.76266 24.6294C7.63976 24.9249 7.40466 25.1596 7.10895 25.2819C6.88662 25.375 6.60508 25.375 6.04199 25.375C5.47891 25.375 5.19737 25.375 4.97503 25.2831C4.67955 25.1602 4.44489 24.9251 4.32253 24.6294C4.22949 24.4071 4.22949 24.1255 4.22949 23.5625V19.9375C4.22949 19.3744 4.22949 19.0928 4.32133 18.8705C4.44422 18.575 4.67932 18.3404 4.97503 18.218C5.19737 18.125 5.47891 18.125 6.04199 18.125C6.60508 18.125 6.88662 18.125 7.10895 18.2168C7.40443 18.3397 7.6391 18.5748 7.76145 18.8705C7.85449 19.0928 7.85449 19.3744 7.85449 19.9375Z" stroke="#F4FF00" stroke-width="1.5" stroke-linejoin="round"/>
</svg>
