<svg width="23" height="21" viewBox="0 0 23 21" fill="none" xmlns="http://www.w3.org/2000/svg">
<path d="M20.4444 0C21.1222 0 21.7722 0.245833 22.2515 0.683417C22.7308 1.121 23 1.71449 23 2.33333V18.6667C23 19.2855 22.7308 19.879 22.2515 20.3166C21.7722 20.7542 21.1222 21 20.4444 21H2.55556C1.87778 21 1.22776 20.7542 0.748505 20.3166C0.269245 19.879 0 19.2855 0 18.6667V2.33333C0 1.71449 0.269245 1.121 0.748505 0.683417C1.22776 0.245833 1.87778 0 2.55556 0H20.4444ZM19.8056 18.0833V11.9C19.8056 10.8913 19.3667 9.9239 18.5855 9.21064C17.8043 8.49737 16.7448 8.09667 15.64 8.09667C14.5539 8.09667 13.2889 8.70333 12.6756 9.61333V8.31833H9.11056V18.0833H12.6756V12.3317C12.6756 11.4333 13.4678 10.6983 14.4517 10.6983C14.9261 10.6983 15.3811 10.8704 15.7166 11.1767C16.0521 11.483 16.2406 11.8985 16.2406 12.3317V18.0833H19.8056ZM4.95778 6.48667C5.52711 6.48667 6.07312 6.28017 6.4757 5.9126C6.87828 5.54502 7.10444 5.04649 7.10444 4.52667C7.10444 3.44167 6.14611 2.555 4.95778 2.555C4.38506 2.555 3.83579 2.76273 3.43082 3.13249C3.02585 3.50225 2.79833 4.00375 2.79833 4.52667C2.79833 5.61167 3.76944 6.48667 4.95778 6.48667ZM6.73389 18.0833V8.31833H3.19444V18.0833H6.73389Z" fill="#F4FF00"/>
</svg>
