<svg width="27" height="27" viewBox="0 0 27 27" fill="none" xmlns="http://www.w3.org/2000/svg">
<rect width="27" height="27" fill="black"/>
<path fill-rule="evenodd" clip-rule="evenodd" d="M3.375 12.375C3.375 8.13263 3.375 6.01087 4.6935 4.6935C6.012 3.37612 8.13263 3.375 12.375 3.375H14.625C18.8674 3.375 20.9891 3.375 22.3065 4.6935C23.6239 6.012 23.625 8.13263 23.625 12.375V14.625C23.625 18.8674 23.625 20.9891 22.3065 22.3065C20.988 23.6239 18.8674 23.625 14.625 23.625H12.375C8.13263 23.625 6.01087 23.625 4.6935 22.3065C3.37612 20.988 3.375 18.8674 3.375 14.625V12.375ZM20.25 8.4375C20.25 8.88505 20.0722 9.31428 19.7557 9.63074C19.4393 9.94721 19.0101 10.125 18.5625 10.125C18.1149 10.125 17.6857 9.94721 17.3693 9.63074C17.0528 9.31428 16.875 8.88505 16.875 8.4375C16.875 7.98995 17.0528 7.56072 17.3693 7.24426C17.6857 6.92779 18.1149 6.75 18.5625 6.75C19.0101 6.75 19.4393 6.92779 19.7557 7.24426C20.0722 7.56072 20.25 7.98995 20.25 8.4375ZM15.75 14.625C15.75 15.2217 15.5129 15.794 15.091 16.216C14.669 16.6379 14.0967 16.875 13.5 16.875C12.9033 16.875 12.331 16.6379 11.909 16.216C11.4871 15.794 11.25 15.2217 11.25 14.625C11.25 14.0283 11.4871 13.456 11.909 13.034C12.331 12.6121 12.9033 12.375 13.5 12.375C14.0967 12.375 14.669 12.6121 15.091 13.034C15.5129 13.456 15.75 14.0283 15.75 14.625ZM18 14.625C18 15.8185 17.5259 16.9631 16.682 17.807C15.8381 18.6509 14.6935 19.125 13.5 19.125C12.3065 19.125 11.1619 18.6509 10.318 17.807C9.47411 16.9631 9 15.8185 9 14.625C9 13.4315 9.47411 12.2869 10.318 11.443C11.1619 10.5991 12.3065 10.125 13.5 10.125C14.6935 10.125 15.8381 10.5991 16.682 11.443C17.5259 12.2869 18 13.4315 18 14.625Z" fill="#F4FF00"/>
</svg>
