<svg width="32" height="32" viewBox="0 0 32 32" fill="none" xmlns="http://www.w3.org/2000/svg">
<path d="M10.633 24.3333C10.4108 23.6889 10.2055 23.0333 10.017 22.3666C9.82856 21.7 9.67834 21.0333 9.56634 20.3666L7.99967 21.4333V25.4L10.633 24.3333ZM15.533 6.49998C14.4663 7.63331 13.6108 9.12798 12.9663 10.984C12.3219 12.84 11.9997 14.7898 11.9997 16.8333C11.9997 18.1666 12.1219 19.4724 12.3663 20.7506C12.6108 22.0289 12.933 23.112 13.333 24H18.6663C19.0663 23.1111 19.3886 22.028 19.633 20.7506C19.8775 19.4733 19.9997 18.1675 19.9997 16.8333C19.9997 14.7889 19.6775 12.8391 19.033 10.984C18.3886 9.12886 17.533 7.6342 16.4663 6.49998C16.3997 6.43331 16.3277 6.38353 16.2503 6.35064C16.173 6.31775 16.0895 6.30086 15.9997 6.29998C15.9099 6.29909 15.8268 6.31598 15.7503 6.35064C15.6739 6.38531 15.6015 6.43509 15.533 6.49998ZM15.9997 17.3333C15.2663 17.3333 14.6388 17.0724 14.117 16.5506C13.5952 16.0289 13.3339 15.4009 13.333 14.6666C13.3321 13.9324 13.5935 13.3049 14.117 12.784C14.6406 12.2631 15.2681 12.0018 15.9997 12C16.7312 11.9982 17.3592 12.2595 17.8837 12.784C18.4081 13.3084 18.669 13.936 18.6663 14.6666C18.6637 15.3973 18.4028 16.0253 17.8837 16.5506C17.3646 17.076 16.7366 17.3369 15.9997 17.3333ZM21.3663 24.3333L23.9997 25.4V21.4333L22.433 20.3666C22.3219 21.0333 22.1721 21.7 21.9837 22.3666C21.7952 23.0333 21.5895 23.6889 21.3663 24.3333ZM17.033 3.46664C18.8997 5.06664 20.3055 7.03331 21.2503 9.36664C22.1952 11.7 22.6672 14.3555 22.6663 17.3333L25.4663 19.2C25.8441 19.4444 26.1388 19.7666 26.3503 20.1666C26.5619 20.5666 26.6672 20.9889 26.6663 21.4333V27.3666C26.6663 27.8333 26.4721 28.2 26.0837 28.4666C25.6952 28.7333 25.2783 28.7778 24.833 28.6L20.033 26.6666H11.9663L7.16634 28.6C6.7219 28.7778 6.30545 28.7333 5.91701 28.4666C5.52856 28.2 5.3339 27.8333 5.33301 27.3666V21.4333C5.33301 20.9889 5.43879 20.5666 5.65034 20.1666C5.8619 19.7666 6.15612 19.4444 6.53301 19.2L9.33301 17.3333C9.33301 14.3555 9.80545 11.7 10.7503 9.36664C11.6952 7.03331 13.1001 5.06664 14.965 3.46664C15.1206 3.35553 15.2872 3.26664 15.465 3.19998C15.6428 3.13331 15.8206 3.09998 15.9983 3.09998C16.1761 3.09998 16.3539 3.13331 16.5317 3.19998C16.7095 3.26664 16.8775 3.35553 17.033 3.46664Z" fill="url(#paint0_linear_14_545)"/>
<defs>
<linearGradient id="paint0_linear_14_545" x1="6.80907" y1="12.0964" x2="28.6058" y2="17.5436" gradientUnits="userSpaceOnUse">
<stop stop-color="#F4FF00"/>
<stop offset="1" stop-color="#F4FF00"/>
</linearGradient>
</defs>
</svg>
