<svg width="28" height="28" viewBox="0 0 28 28" fill="none" xmlns="http://www.w3.org/2000/svg">
<path d="M12.833 2.33337V4.74837C10.7796 5.00877 8.8711 5.94432 7.40752 7.40789C5.94395 8.87146 5.0084 10.78 4.74801 12.8334H2.33301V15.1667H4.74801C5.0084 17.2201 5.94395 19.1286 7.40752 20.5922C8.8711 22.0558 10.7796 22.9913 12.833 23.2517V25.6667H15.1663V23.2517C17.2197 22.9913 19.1283 22.0558 20.5918 20.5922C22.0554 19.1286 22.991 17.2201 23.2513 15.1667H25.6663V12.8334H23.2513C22.991 10.78 22.0554 8.87146 20.5918 7.40789C19.1283 5.94432 17.2197 5.00877 15.1663 4.74837V2.33337M12.833 7.09337V9.33337H15.1663V7.10504C18.083 7.58337 20.4163 9.91671 20.9063 12.8334H18.6663V15.1667H20.8947C20.4163 18.0834 18.083 20.4167 15.1663 20.9067V18.6667H12.833V20.895C9.91634 20.4167 7.58301 18.0834 7.09301 15.1667H9.33301V12.8334H7.10467C7.58301 9.91671 9.91634 7.58337 12.833 7.09337ZM13.9997 12.8334C13.6903 12.8334 13.3935 12.9563 13.1747 13.1751C12.9559 13.3939 12.833 13.6906 12.833 14C12.833 14.3095 12.9559 14.6062 13.1747 14.825C13.3935 15.0438 13.6903 15.1667 13.9997 15.1667C14.3091 15.1667 14.6058 15.0438 14.8246 14.825C15.0434 14.6062 15.1663 14.3095 15.1663 14C15.1663 13.6906 15.0434 13.3939 14.8246 13.1751C14.6058 12.9563 14.3091 12.8334 13.9997 12.8334Z" fill="#F4FF00"/>
</svg>
