<svg width="28" height="28" viewBox="0 0 28 28" fill="none" xmlns="http://www.w3.org/2000/svg">
<path d="M14.0001 9.33337C15.2378 9.33337 16.4247 9.82504 17.2999 10.7002C18.1751 11.5754 18.6667 12.7624 18.6667 14C18.6667 15.2377 18.1751 16.4247 17.2999 17.2999C16.4247 18.175 15.2378 18.6667 14.0001 18.6667C12.7624 18.6667 11.5754 18.175 10.7002 17.2999C9.82508 16.4247 9.33341 15.2377 9.33341 14C9.33341 12.7624 9.82508 11.5754 10.7002 10.7002C11.5754 9.82504 12.7624 9.33337 14.0001 9.33337ZM14.0001 11.6667C13.3812 11.6667 12.7877 11.9125 12.3502 12.3501C11.9126 12.7877 11.6667 13.3812 11.6667 14C11.6667 14.6189 11.9126 15.2124 12.3502 15.65C12.7877 16.0875 13.3812 16.3334 14.0001 16.3334C14.6189 16.3334 15.2124 16.0875 15.65 15.65C16.0876 15.2124 16.3334 14.6189 16.3334 14C16.3334 13.3812 16.0876 12.7877 15.65 12.3501C15.2124 11.9125 14.6189 11.6667 14.0001 11.6667ZM11.6667 25.6667C11.3751 25.6667 11.1301 25.4567 11.0834 25.1767L10.6517 22.085C9.91674 21.7934 9.28674 21.3967 8.68008 20.93L5.77508 22.1084C5.51841 22.2017 5.20341 22.1084 5.06341 21.8517L2.73008 17.815C2.65867 17.6948 2.6335 17.5527 2.65927 17.4153C2.68503 17.2779 2.75998 17.1546 2.87008 17.0684L5.33175 15.1317L5.25008 14L5.33175 12.8334L2.87008 10.9317C2.75998 10.8455 2.68503 10.7222 2.65927 10.5848C2.6335 10.4474 2.65867 10.3053 2.73008 10.185L5.06341 6.14837C5.20341 5.89171 5.51841 5.78671 5.77508 5.89171L8.68008 7.05837C9.28674 6.60337 9.91674 6.20671 10.6517 5.91504L11.0834 2.82337C11.1301 2.54337 11.3751 2.33337 11.6667 2.33337H16.3334C16.6251 2.33337 16.8701 2.54337 16.9167 2.82337L17.3484 5.91504C18.0834 6.20671 18.7134 6.60337 19.3201 7.05837L22.2251 5.89171C22.4817 5.78671 22.7967 5.89171 22.9367 6.14837L25.2701 10.185C25.4217 10.4417 25.3517 10.7567 25.1301 10.9317L22.6684 12.8334L22.7501 14L22.6684 15.1667L25.1301 17.0684C25.3517 17.2434 25.4217 17.5584 25.2701 17.815L22.9367 21.8517C22.7967 22.1084 22.4817 22.2134 22.2251 22.1084L19.3201 20.9417C18.7134 21.3967 18.0834 21.7934 17.3484 22.085L16.9167 25.1767C16.8701 25.4567 16.6251 25.6667 16.3334 25.6667H11.6667ZM13.1251 4.66671L12.6934 7.71171C11.2934 8.00337 10.0567 8.75004 9.15841 9.78837L6.34674 8.57504L5.47175 10.0917L7.93341 11.9C7.46674 13.2612 7.46674 14.7389 7.93341 16.1L5.46008 17.92L6.33508 19.4367L9.17008 18.2234C10.0684 19.25 11.2934 19.9967 12.6817 20.2767L13.1134 23.3334H14.8867L15.3184 20.2884C16.7067 19.9967 17.9317 19.25 18.8301 18.2234L21.6651 19.4367L22.5401 17.92L20.0667 16.1117C20.5334 14.7467 20.5334 13.265 20.0667 11.9L22.5284 10.0917L21.6534 8.57504L18.8417 9.78837C17.925 8.72708 16.6815 8.00066 15.3067 7.72337L14.8751 4.66671H13.1251Z" fill="url(#paint0_linear_204_271)"/>
<defs>
<linearGradient id="paint0_linear_204_271" x1="4.22014" y1="10.5311" x2="26.9292" y2="17.1587" gradientUnits="userSpaceOnUse">
<stop stop-color="#F4FF00"/>
<stop offset="1" stop-color="#F4FF00"/>
</linearGradient>
</defs>
</svg>
