<svg width="40" height="38" viewBox="0 0 40 38" fill="none" xmlns="http://www.w3.org/2000/svg">
<path d="M18.5551 0.801489C18.7716 -0.267007 20.2987 -0.267011 20.5152 0.801486L23.3044 14.5639C23.3854 14.9634 23.7007 15.2738 24.1015 15.3484L38.2533 17.9825C39.3426 18.1852 39.3426 19.7459 38.2533 19.9487L24.1015 22.5827C23.7007 22.6573 23.3854 22.9677 23.3044 23.3672L20.5152 37.1297C20.2987 38.1982 18.7716 38.1982 18.5551 37.1297L15.7659 23.3672C15.6849 22.9677 15.3696 22.6573 14.9688 22.5827L0.817061 19.9487C-0.27229 19.7459 -0.272296 18.1852 0.817056 17.9825L14.9688 15.3484C15.3696 15.2738 15.6849 14.9634 15.7659 14.5639L18.5551 0.801489Z" fill="#F4FF00"/>
</svg>
